<svg viewBox="0 0 100 100" xmlns="http://www.w3.org/2000/svg">
  <!-- Central Core Elements, symbolizing the AI's processing hub (2 elements) -->
  <circle cx="50" cy="50" r="10" fill="#f59e0b"/>
  <circle cx="50" cy="50" r="5" fill="#fbbf24"/>

  <!-- Quadrant 1: Top-Right flow and neural connections (7 elements) -->
  <g transform="rotate(0 50 50)">
    <!-- Main Flow Pathways: Representing data streams or neural processes (2 elements) -->
    <path d="M50 45 C65 30, 80 40, 75 50" fill="#fbbf24"/>
    <path d="M50 48 C63 35, 78 45, 73 53" fill="#f59e0b"/>
    <!-- Connecting Nodes/Flow Indicators: Small points implying intricate neural connections (3 elements) -->
    <circle cx="60" cy="38" r="1.5" fill="#fbbf24"/>
    <circle cx="70" cy="45" r="1.5" fill="#f59e0b"/>
    <circle cx="68" cy="30" r="1.5" fill="#fbbf24"/>
    <!-- Additional "Energy" or "Data" Flows: Thin, elegant lines enhancing dynamic movement (2 elements) -->
    <path d="M50 40 Q55 25, 65 30" fill="none" stroke="#fbbf24" stroke-width="1.5" stroke-linecap="round"/>
    <path d="M55 45 Q60 30, 70 35" fill="none" stroke="#f59e0b" stroke-width="1.5" stroke-linecap="round"/>
  </g>

  <!-- Quadrant 2: Bottom-Right flow and neural connections (7 elements) -->
  <g transform="rotate(90 50 50)">
    <path d="M50 45 C65 30, 80 40, 75 50" fill="#fbbf24"/>
    <path d="M50 48 C63 35, 78 45, 73 53" fill="#f59e0b"/>
    <circle cx="60" cy="38" r="1.5" fill="#fbbf24"/>
    <circle cx="70" cy="45" r="1.5" fill="#f59e0b"/>
    <circle cx="68" cy="30" r="1.5" fill="#fbbf24"/>
    <path d="M50 40 Q55 25, 65 30" fill="none" stroke="#fbbf24" stroke-width="1.5" stroke-linecap="round"/>
    <path d="M55 45 Q60 30, 70 35" fill="none" stroke="#f59e0b" stroke-width="1.5" stroke-linecap="round"/>
  </g>

  <!-- Quadrant 3: Bottom-Left flow and neural connections (7 elements) -->
  <g transform="rotate(180 50 50)">
    <path d="M50 45 C65 30, 80 40, 75 50" fill="#fbbf24"/>
    <path d="M50 48 C63 35, 78 45, 73 53" fill="#f59e0b"/>
    <circle cx="60" cy="38" r="1.5" fill="#fbbf24"/>
    <circle cx="70" cy="45" r="1.5" fill="#f59e0b"/>
    <circle cx="68" cy="30" r="1.5" fill="#fbbf24"/>
    <path d="M50 40 Q55 25, 65 30" fill="none" stroke="#fbbf24" stroke-width="1.5" stroke-linecap="round"/>
    <path d="M55 45 Q60 30, 70 35" fill="none" stroke="#f59e0b" stroke-width="1.5" stroke-linecap="round"/>
  </g>

  <!-- Quadrant 4: Top-Left flow and neural connections (7 elements) -->
  <g transform="rotate(270 50 50)">
    <path d="M50 45 C65 30, 80 40, 75 50" fill="#fbbf24"/>
    <path d="M50 48 C63 35, 78 45, 73 53" fill="#f59e0b"/>
    <circle cx="60" cy="38" r="1.5" fill="#fbbf24"/>
    <circle cx="70" cy="45" r="1.5" fill="#f59e0b"/>
    <circle cx="68" cy="30" r="1.5" fill="#fbbf24"/>
    <path d="M50 40 Q55 25, 65 30" fill="none" stroke="#fbbf24" stroke-width="1.5" stroke-linecap="round"/>
    <path d="M55 45 Q60 30, 70 35" fill="none" stroke="#f59e0b" stroke-width="1.5" stroke-linecap="round"/>
  </g>
</svg>