<svg width="100%" height="100%" viewBox="0 0 100 100" fill="none" xmlns="http://www.w3.org/2000/svg">
  <!--
    NeuralFlow Logo: An abstract and symbolic representation of AI, neural networks, and data flow.
    Style: Abstract, symbolic, sophisticated, elegant.
    Aesthetic Principles: Golden Ratio (φ=1.618) applied to key proportions, 4-fold rotational symmetry.
    Complexity: 29 elements (1 central + 8 inner buds + 8 intermediate ribbons + 12 outer connection points).
    Color Scheme: Complementary palette using #fbbf24 (golden yellow) and #c4b5fd (lavender purple).
    Optimized for scalability (16x16 to 1024x1024).
  -->

  <!-- Central Core Node (1 element) - Represents the core intelligence or central processing unit. -->
  <circle cx="50" cy="50" r="8" fill="#fbbf24"/>

  <!-- Inner "Neural Buds" (8 elements) - Small nodes symbolizing individual neurons or data points,
       positioned on a circle with radius 13 (approx 8 * φ). -->
  <g fill="#c4b5fd">
    <circle cx="63" cy="50" r="2.5"/>
    <circle cx="59.19" cy="40.81" r="2.5"/>
    <circle cx="50" cy="37" r="2.5"/>
    <circle cx="40.81" cy="40.81" r="2.5"/>
    <circle cx="37" cy="50" r="2.5"/>
    <circle cx="40.81" cy="59.19" r="2.5"/>
    <circle cx="50" cy="63" r="2.5"/>
    <circle cx="59.19" cy="59.19" r="2.5"/>
  </g>

  <!-- Intermediate Flowing Ribbons (8 elements) - Elegant, curved paths representing data flow and connections.
       Four primary ribbons in golden yellow, and four slightly offset/scaled ribbons in lavender for depth.
       These elements extend towards radius 21 (approx 13 * φ). -->
  <g>
    <!-- Primary Ribbons (#fbbf24) - 4 elements -->
    <path d="M50 35 C55 25, 65 25, 70 35 C68 45, 55 45, 50 35 Z" fill="#fbbf24"/>
    <path d="M50 35 C55 25, 65 25, 70 35 C68 45, 55 45, 50 35 Z" transform="rotate(90 50 50)" fill="#fbbf24"/>
    <path d="M50 35 C55 25, 65 25, 70 35 C68 45, 55 45, 50 35 Z" transform="rotate(180 50 50)" fill="#fbbf24"/>
    <path d="M50 35 C55 25, 65 25, 70 35 C68 45, 55 45, 50 35 Z" transform="rotate(270 50 50)" fill="#fbbf24"/>

    <!-- Secondary Ribbons (#c4b5fd) - 4 elements, slightly inside and scaled -->
    <path d="M50 37 C53 28, 62 28, 67 37 C65 43, 53 43, 50 37 Z" fill="#c4b5fd"/>
    <path d="M50 37 C53 28, 62 28, 67 37 C65 43, 53 43, 50 37 Z" transform="rotate(90 50 50)" fill="#c4b5fd"/>
    <path d="M50 37 C53 28, 62 28, 67 37 C65 43, 53 43, 50 37 Z" transform="rotate(180 50 50)" fill="#c4b5fd"/>
    <path d="M50 37 C53 28, 62 28, 67 37 C65 43, 53 43, 50 37 Z" transform="rotate(270 50 50)" fill="#c4b5fd"/>
  </g>

  <!-- Outer Connection Points (12 elements) - Small clusters of circles symbolizing connection nodes or data packets,
       positioned near the outer tips of the ribbons, around radius 22 (approx 21 * φ * (1/φ^2)). -->
  <g fill="#c4b5fd">
    <!-- Group 1 -->
    <circle cx="50" cy="22" r="2"/>
    <circle cx="55" cy="27" r="2"/>
    <circle cx="45" cy="27" r="2"/>
    <!-- Group 2 -->
    <g transform="rotate(90 50 50)">
      <circle cx="50" cy="22" r="2"/>
      <circle cx="55" cy="27" r="2"/>
      <circle cx="45" cy="27" r="2"/>
    </g>
    <!-- Group 3 -->
    <g transform="rotate(180 50 50)">
      <circle cx="50" cy="22" r="2"/>
      <circle cx="55" cy="27" r="2"/>
      <circle cx="45" cy="27" r="2"/>
    </g>
    <!-- Group 4 -->
    <g transform="rotate(270 50 50)">
      <circle cx="50" cy="22" r="2"/>
      <circle cx="55" cy="27" r="2"/>
      <circle cx="45" cy="27" r="2"/>
    </g>
  </g>
</svg>