<svg viewBox="0 0 100 100" xmlns="http://www.w3.org/2000/svg">
  <defs>
    <style>
      /* Main color palette */
      .color-primary { fill: #8b5cf6; } /* Darker purple for core elements */
      .color-secondary { fill: #c4b5fd; } /* Lighter purple for flowing elements and accents */
      .stroke-primary { stroke: #8b5cf6; } /* Darker purple for stroke details */
      .stroke-secondary { stroke: #c4b5fd; } /* Lighter purple for stroke details */
      .flow-line {
        fill: none;
        stroke-linecap: round;
        stroke-linejoin: round;
      }
    </style>
  </defs>

  <!-- Central "Neural Core" - The primary hub, abstract and dynamic, forming a focal point. (1 element) -->
  <path class="color-primary" d="M45 40 C40 30 50 25 60 35 L55 60 C50 65 40 55 45 40 Z"/>

  <!-- Main "Flow" paths - These define the overall structure, creating movement and hinting at a network or the letter 'N' through negative space. -->
  <!-- Left Flowing Arc (1 element) -->
  <path class="flow-line stroke-secondary" d="M20 20 C10 40 20 70 40 80" stroke-width="4"/>
  <!-- Right Flowing Arc, shorter and offset for asymmetrical balance (1 element) -->
  <path class="flow-line stroke-secondary" d="M80 30 C90 45 80 65 60 75" stroke-width="4"/>

  <!-- Connecting paths - Internal flows that link the main structures, adding to complexity and closure. -->
  <path class="flow-line stroke-secondary" d="M30 40 C40 30 50 30 60 40" stroke-width="2"/> <!-- 1 element -->
  <path class="flow-line stroke-secondary" d="M40 60 C50 70 60 60 70 50" stroke-width="2"/> <!-- 1 element -->

  <!-- Large "Nodes" or "Synapses" - Key connection points on the main flow paths. (4 elements) -->
  <circle class="color-secondary" cx="20" cy="20" r="2.5"/>
  <circle class="color-secondary" cx="40" cy="80" r="2.5"/>
  <circle class="color-secondary" cx="80" cy="30" r="2.5"/>
  <circle class="color-secondary" cx="60" cy="75" r="2.5"/>

  <!-- Fragmented or secondary flow paths - Smaller lines contributing to the sense of data flow and energy. (4 elements) -->
  <path class="flow-line stroke-primary" d="M30 30 C25 35 28 45 35 50" stroke-width="1.5"/>
  <path class="flow-line stroke-primary" d="M70 60 C75 55 72 45 65 40" stroke-width="1.5"/>
  <path class="flow-line stroke-secondary" d="M45 20 C50 15 55 20 60 25" stroke-width="1.5"/>
  <path class="flow-line stroke-secondary" d="M35 80 C40 85 45 80 50 75" stroke-width="1.5"/>

  <!-- Smaller "Data Points" - Distributed throughout the design for refined detail and complexity. (6 elements) -->
  <circle class="color-secondary" cx="25" cy="50" r="1.5"/>
  <circle class="color-secondary" cx="75" cy="50" r="1.5"/>
  <circle class="color-secondary" cx="50" cy="45" r="1.5"/>
  <circle class="color-secondary" cx="50" cy="55" r="1.5"/>
  <circle class="color-secondary" cx="40" cy="30" r="1"/>
  <circle class="color-secondary" cx="60" cy="70" r="1"/>

  <!-- Additional internal flow lines - Adding depth and reinforcing the "NeuralFlow" concept. (4 elements) -->
  <path class="flow-line stroke-primary" d="M25 60 Q30 65 35 60 C40 55 35 50 30 45" stroke-width="1"/>
  <path class="flow-line stroke-primary" d="M75 40 Q70 35 65 40 C60 45 65 50 70 55" stroke-width="1"/>
  <path class="flow-line stroke-secondary" d="M42 35 C45 30 55 30 58 35" stroke-width="1"/>
  <path class="flow-line stroke-secondary" d="M42 65 C45 70 55 70 58 65" stroke-width="1"/>

  <!-- Tiny internal nodes - Further refining the core and adding micro-detail. (4 elements) -->
  <circle class="color-secondary" cx="47" cy="48" r="1.5"/>
  <circle class="color-secondary" cx="53" cy="52" r="1.5"/>
  <circle class="color-secondary" cx="49" cy="42" r="1"/>
  <circle class="color-secondary" cx="51" cy="58" r="1"/>

  <!-- Micro-nodes - Smallest points of connection, completing the element count. (2 elements) -->
  <circle class="color-secondary" cx="30" cy="30" r="0.8"/>
  <circle class="color-secondary" cx="70" cy="70" r="0.8"/>
</svg>