<svg viewBox="0 0 100 100" xmlns="http://www.w3.org/2000/svg">
  <!-- Central Core: Represents the AI's nucleus or central processing unit. (1 element) -->
  <path d="M50 35 L65 50 L50 65 L35 50 Z" fill="#a78bfa"/>

  <!-- Inner Radiating Paths: Delicate connections extending from the core. (4 elements) -->
  <path d="M50 35 Q45 40 40 45" fill="none" stroke="#a78bfa" stroke-width="2" stroke-linecap="round"/>
  <path d="M50 35 Q55 40 60 45" fill="none" stroke="#a78bfa" stroke-width="2" stroke-linecap="round"/>
  <path d="M50 65 Q45 60 40 55" fill="none" stroke="#a78bfa" stroke-width="2" stroke-linecap="round"/>
  <path d="M50 65 Q55 60 60 55" fill="none" stroke="#a78bfa" stroke-width="2" stroke-linecap="round"/>

  <!-- Main Flow Channels: Four symmetrical, layered streams symbolizing data flow. (12 elements) -->
  <!-- Channel 1 (Top-Left) -->
  <path d="M40 45 Q25 35 30 20 Q45 10 50 25" fill="#f59e0b"/>
  <path d="M42 45 Q28 38 33 24 Q46 15 48 27" fill="#a78bfa"/>
  <path d="M44 45 Q31 40 36 28 Q47 19 47 29" fill="none" stroke="#f59e0b" stroke-width="1.5" stroke-linecap="round"/>

  <!-- Channel 2 (Top-Right) -->
  <path d="M60 45 Q75 35 70 20 Q55 10 50 25" fill="#f59e0b"/>
  <path d="M58 45 Q72 38 67 24 Q54 15 52 27" fill="#a78bfa"/>
  <path d="M56 45 Q69 40 64 28 Q53 19 53 29" fill="none" stroke="#f59e0b" stroke-width="1.5" stroke-linecap="round"/>

  <!-- Channel 3 (Bottom-Right) -->
  <path d="M60 55 Q75 65 70 80 Q55 90 50 75" fill="#f59e0b"/>
  <path d="M58 55 Q72 62 67 76 Q54 85 52 73" fill="#a78bfa"/>
  <path d="M56 55 Q69 60 64 72 Q53 81 53 71" fill="none" stroke="#f59e0b" stroke-width="1.5" stroke-linecap="round"/>

  <!-- Channel 4 (Bottom-Left) -->
  <path d="M40 55 Q25 65 30 80 Q45 90 50 75" fill="#f59e0b"/>
  <path d="M42 55 Q28 62 33 76 Q46 85 48 73" fill="#a78bfa"/>
  <path d="M44 55 Q31 60 36 72 Q47 81 47 71" fill="none" stroke="#f59e0b" stroke-width="1.5" stroke-linecap="round"/>

  <!-- Outer Connecting Arcs: Create a sense of enclosure and continuous network flow (Gestalt closure). (4 elements) -->
  <path d="M50 25 C65 5 85 20 80 50" fill="none" stroke="#f59e0b" stroke-width="2" stroke-linecap="round"/>
  <path d="M50 25 C35 5 15 20 20 50" fill="none" stroke="#f59e0b" stroke-width="2" stroke-linecap="round"/>
  <path d="M50 75 C35 95 15 80 20 50" fill="none" stroke="#f59e0b" stroke-width="2" stroke-linecap="round"/>
  <path d="M50 75 C65 95 85 80 80 50" fill="none" stroke="#f59e0b" stroke-width="2" stroke-linecap="round"/>

  <!-- Accent Nodes: Small connection points highlighting key areas in the flow. (8 elements) -->
  <!-- Channel 1 accents -->
  <circle cx="37" cy="30" r="1.5" fill="#f59e0b"/>
  <circle cx="45" cy="18" r="1.5" fill="#f59e0b"/>
  <!-- Channel 2 accents -->
  <circle cx="63" cy="30" r="1.5" fill="#f59e0b"/>
  <circle cx="55" cy="18" r="1.5" fill="#f59e0b"/>
  <!-- Channel 3 accents -->
  <circle cx="63" cy="70" r="1.5" fill="#f59e0b"/>
  <circle cx="55" cy="82" r="1.5" fill="#f59e0b"/>
  <!-- Channel 4 accents -->
  <circle cx="37" cy="70" r="1.5" fill="#f59e0b"/>
  <circle cx="45" cy="82" r="1.5" fill="#f59e0b"/>
</svg>