<svg width="200" height="200" viewBox="0 0 200 200" xmlns="http://www.w3.org/2000/svg">
  <!-- Core AI processing unit (3 elements) -->
  <!-- Main abstract core shape, slightly asymmetrical and off-center -->
  <path d="M70 60 Q50 90 70 140 Q90 160 130 140 Q150 110 130 60 Q110 40 70 60Z" fill="#f59e0b"/>
  <!-- Inner overlapping shape for depth and subtle flow -->
  <path d="M80 70 Q65 100 80 130 Q95 140 120 120 Q130 90 115 65 Q95 55 80 70Z" fill="#fcd34d"/>
  <!-- Small central node for focus within the core -->
  <circle cx="100" cy="100" r="4" fill="#f59e0b"/>

  <!-- Neural Nodes (7 elements) -->
  <!-- Asymmetrically placed nodes representing network connections -->
  <circle cx="45" cy="85" r="3" fill="#fcd34d"/>
  <circle cx="155" cy="115" r="3" fill="#fcd34d"/>
  <circle cx="80" cy="40" r="3" fill="#f59e0b"/>
  <circle cx="120" cy="160" r="3" fill="#f59e0b"/>
  <circle cx="30" cy="120" r="3" fill="#f59e0b"/>
  <circle cx="170" cy="80" r="3" fill="#fcd34d"/>
  <circle cx="105" cy="25" r="3" fill="#fcd34d"/>

  <!-- Flow Lines (12 elements) -->
  <!-- Dynamic, curving paths representing data flow and neural connections -->
  <path d="M40 85 Q60 70 80 45" fill="none" stroke="#f59e0b" stroke-width="1.5" stroke-linecap="round"/>
  <path d="M160 115 Q140 130 120 155" fill="none" stroke="#f59e0b" stroke-width="1.5" stroke-linecap="round"/>
  <path d="M30 120 Q60 130 90 145" fill="none" stroke="#fcd34d" stroke-width="1.5" stroke-linecap="round"/>
  <path d="M170 80 Q140 70 110 55" fill="none" stroke="#fcd34d" stroke-width="1.5" stroke-linecap="round"/>
  <path d="M100 100 C80 120 70 120 50 100" fill="none" stroke="#f59e0b" stroke-width="1.5" stroke-linecap="round"/>
  <path d="M100 100 C120 80 130 80 150 100" fill="none" stroke="#fcd34d" stroke-width="1.5" stroke-linecap="round"/>
  <path d="M70 60 Q80 70 90 80" fill="none" stroke="#fcd34d" stroke-width="1.5" stroke-linecap="round"/>
  <path d="M130 140 Q120 130 110 120" fill="none" stroke="#fcd34d" stroke-width="1.5" stroke-linecap="round"/>
  <path d="M105 25 Q120 40 140 60" fill="none" stroke="#f59e0b" stroke-width="1.5" stroke-linecap="round"/>
  <path d="M100 100 C110 130 130 140 150 130" fill="none" stroke="#f59e0b" stroke-width="1.5" stroke-linecap="round"/>
  <path d="M60 150 Q70 130 90 120" fill="none" stroke="#fcd34d" stroke-width="1.5" stroke-linecap="round"/>
  <path d="M140 60 Q130 40 110 30" fill="none" stroke="#f59e0b" stroke-width="1.5" stroke-linecap="round"/>
</svg>