<svg viewBox="0 0 100 100" xmlns="http://www.w3.org/2000/svg">
  <!-- Central Node representing the core AI processing unit -->
  <circle cx="50" cy="50" r="6" fill="#f59e0b"/>

  <!-- Left Flow Stream -->
  <!-- Main outer path for the left stream (dark orange) -->
  <path d="M50 50 C40 30 20 20 10 40 S0 60 20 80 C30 70 40 55 50 50 Z" fill="#f59e0b"/>
  <!-- Inner path for the left stream (lighter orange, nested for depth) -->
  <path d="M50 50 C42 34 24 24 14 44 S4 64 24 76 C32 68 42 56 50 50 Z" fill="#fcd34d"/>

  <!-- Neural dots along the left stream (lighter orange) -->
  <circle cx="35" cy="40" r="2" fill="#fcd34d"/>
  <circle cx="25" cy="30" r="2" fill="#fcd34d"/>
  <circle cx="15" cy="35" r="2" fill="#fcd34d"/>
  <circle cx="8" cy="45" r="2" fill="#fcd34d"/>
  <circle cx="12" cy="55" r="2" fill="#fcd34d"/>
  <circle cx="20" cy="65" r="2" fill="#fcd34d"/>
  <circle cx="30" cy="70" r="2" fill="#fcd34d"/>
  <circle cx="40" cy="60" r="2" fill="#fcd34d"/>
  <circle cx="28" cy="50" r="2" fill="#fcd34d"/>
  <circle cx="38" cy="45" r="2" fill="#fcd34d"/>

  <!-- Right Flow Stream (mirrored from the left) -->
  <!-- Main outer path for the right stream (dark orange) -->
  <path d="M50 50 C60 30 80 20 90 40 S100 60 80 80 C70 70 60 55 50 50 Z" fill="#f59e0b"/>
  <!-- Inner path for the right stream (lighter orange, nested for depth) -->
  <path d="M50 50 C58 34 76 24 86 44 S96 64 76 76 C68 68 58 56 50 50 Z" fill="#fcd34d"/>

  <!-- Neural dots along the right stream (lighter orange) -->
  <circle cx="65" cy="40" r="2" fill="#fcd34d"/>
  <circle cx="75" cy="30" r="2" fill="#fcd34d"/>
  <circle cx="85" cy="35" r="2" fill="#fcd34d"/>
  <circle cx="92" cy="45" r="2" fill="#fcd34d"/>
  <circle cx="88" cy="55" r="2" fill="#fcd34d"/>
  <circle cx="80" cy="65" r="2" fill="#fcd34d"/>
  <circle cx="70" cy="70" r="2" fill="#fcd34d"/>
  <circle cx="60" cy="60" r="2" fill="#fcd34d"/>
  <circle cx="72" cy="50" r="2" fill="#fcd34d"/>
  <circle cx="62" cy="45" r="2" fill="#fcd34d"/>
</svg>