<svg xmlns="http://www.w3.org/2000/svg" viewBox="0 0 200 200">
  <path d="M128,105 L123,123" stroke="#2563eb" stroke-width="2" fill="none"/>
  <rect x="64" y="71" width="29" height="15" fill="#f39c12"/>
  <circle cx="100" cy="173" r="21" fill="#f39c12"/>
  <rect x="138" y="120" width="37" height="11" fill="#2563eb"/>
  <rect x="14" y="93" width="29" height="35" fill="#2563eb"/>
  <circle cx="27" cy="160" r="6" fill="#f39c12"/>
  <path d="M139,99 L134,166" stroke="#2563eb" stroke-width="2" fill="none"/>
  <rect x="29" y="118" width="12" height="10" fill="#e74c3c"/>
  <rect x="134" y="125" width="39" height="28" fill="#f39c12"/>
  <circle cx="44" cy="27" r="6" fill="#e74c3c"/>
  <rect x="114" y="34" width="16" height="23" fill="#f39c12"/>
  <rect x="37" y="115" width="32" height="36" fill="#f39c12"/>
  <circle cx="168" cy="55" r="12" fill="#f39c12"/>
  <path d="M73,157 L173,82" stroke="#2563eb" stroke-width="2" fill="none"/>
  <circle cx="89" cy="177" r="15" fill="#e74c3c"/>
  <rect x="37" y="85" width="14" height="15" fill="#e74c3c"/>
  <circle cx="61" cy="76" r="21" fill="#2563eb"/>
  <circle cx="63" cy="108" r="5" fill="#f39c12"/>
  <circle cx="49" cy="70" r="5" fill="#f39c12"/>
  <rect x="38" y="110" width="21" height="20" fill="#e74c3c"/>
  <circle cx="107" cy="23" r="14" fill="#2563eb"/>
  <rect x="73" y="60" width="12" height="14" fill="#2563eb"/>
  <rect x="46" y="105" width="24" height="39" fill="#2563eb"/>
  <path d="M55,72 L136,121" stroke="#f39c12" stroke-width="2" fill="none"/>
  <rect x="93" y="68" width="19" height="18" fill="#2563eb"/>
  <path d="M73,82 L41,146" stroke="#2563eb" stroke-width="2" fill="none"/>
  <path d="M74,77 L36,130" stroke="#2563eb" stroke-width="2" fill="none"/>
  <circle cx="141" cy="77" r="5" fill="#e74c3c"/>
  <rect x="32" y="101" width="24" height="12" fill="#e74c3c"/>
  <rect x="121" y="55" width="23" height="34" fill="#2563eb"/>
  <circle cx="90" cy="63" r="13" fill="#10b981"/>
</svg>