<svg xmlns="http://www.w3.org/2000/svg" viewBox="0 0 200 200">
  <path d="M37,142 L43,68" stroke="#e74c3c" stroke-width="2" fill="none"/>
  <rect x="64" y="72" width="35" height="35" fill="#e74c3c"/>
  <rect x="85" y="128" width="36" height="27" fill="#e74c3c"/>
  <rect x="86" y="116" width="13" height="33" fill="#e74c3c"/>
  <circle cx="69" cy="164" r="15" fill="#c0392b"/>
  <circle cx="114" cy="43" r="12" fill="#c0392b"/>
  <circle cx="139" cy="141" r="27" fill="#e74c3c"/>
  <circle cx="103" cy="81" r="7" fill="#e74c3c"/>
  <path d="M20,93 L82,115" stroke="#c0392b" stroke-width="2" fill="none"/>
  <path d="M46,129 L136,179" stroke="#c0392b" stroke-width="2" fill="none"/>
  <path d="M85,39 L99,142" stroke="#c0392b" stroke-width="2" fill="none"/>
  <path d="M56,61 L98,136" stroke="#c0392b" stroke-width="2" fill="none"/>
  <path d="M160,164 L128,94" stroke="#e74c3c" stroke-width="2" fill="none"/>
  <path d="M71,139 L156,167" stroke="#e74c3c" stroke-width="2" fill="none"/>
  <rect x="58" y="66" width="31" height="36" fill="#e74c3c"/>
  <circle cx="67" cy="96" r="23" fill="#e74c3c"/>
  <path d="M59,180 L173,149" stroke="#c0392b" stroke-width="2" fill="none"/>
  <circle cx="49" cy="106" r="8" fill="#c0392b"/>
  <rect x="40" y="76" width="17" height="32" fill="#e74c3c"/>
  <path d="M121,97 L123,47" stroke="#e74c3c" stroke-width="2" fill="none"/>
  <path d="M142,180 L45,60" stroke="#c0392b" stroke-width="2" fill="none"/>
  <circle cx="56" cy="50" r="24" fill="#c0392b"/>
  <rect x="48" y="94" width="29" height="11" fill="#c0392b"/>
  <rect x="47" y="10" width="27" height="37" fill="#e74c3c"/>
  <circle cx="89" cy="121" r="21" fill="#c0392b"/>
  <circle cx="148" cy="69" r="7" fill="#10b981"/>
  <circle cx="105" cy="119" r="5" fill="#2563eb"/>
</svg>