<svg xmlns="http://www.w3.org/2000/svg" viewBox="0 0 200 200">
  <path d="M81,56 L56,91" stroke="#2563eb" stroke-width="2" fill="none"/>
  <rect x="35" y="101" width="14" height="18" fill="#2563eb"/>
  <rect x="16" y="85" width="19" height="36" fill="#2563eb"/>
  <circle cx="51" cy="79" r="16" fill="#10b981"/>
  <rect x="59" y="138" width="14" height="17" fill="#10b981"/>
  <rect x="19" y="101" width="31" height="28" fill="#10b981"/>
  <path d="M41,174 L123,177" stroke="#10b981" stroke-width="2" fill="none"/>
  <path d="M151,111 L150,36" stroke="#10b981" stroke-width="2" fill="none"/>
  <rect x="28" y="24" width="14" height="17" fill="#2563eb"/>
  <path d="M85,93 L148,142" stroke="#10b981" stroke-width="2" fill="none"/>
  <rect x="78" y="55" width="29" height="23" fill="#2563eb"/>
  <rect x="97" y="46" width="29" height="35" fill="#2563eb"/>
  <rect x="78" y="104" width="13" height="18" fill="#2563eb"/>
  <rect x="41" y="98" width="40" height="18" fill="#2563eb"/>
  <rect x="110" y="17" width="27" height="17" fill="#2563eb"/>
  <rect x="108" y="106" width="18" height="19" fill="#2563eb"/>
  <path d="M144,84 L21,88" stroke="#10b981" stroke-width="2" fill="none"/>
  <circle cx="123" cy="178" r="29" fill="#2563eb"/>
  <circle cx="133" cy="100" r="5" fill="#10b981"/>
  <circle cx="176" cy="168" r="11" fill="#10b981"/>
  <circle cx="59" cy="63" r="20" fill="#e74c3c"/>
</svg>