<svg xmlns="http://www.w3.org/2000/svg" viewBox="0 0 200 200">
  <circle cx="83" cy="123" r="14" fill="#e74c3c"/>
  <circle cx="59" cy="91" r="7" fill="#f39c12"/>
  <rect x="33" y="13" width="22" height="21" fill="#e74c3c"/>
  <path d="M178,78 L48,167" stroke="#e74c3c" stroke-width="2" fill="none"/>
  <rect x="79" y="98" width="33" height="30" fill="#e74c3c"/>
  <rect x="112" y="30" width="11" height="15" fill="#2563eb"/>
  <circle cx="40" cy="108" r="24" fill="#f39c12"/>
  <circle cx="27" cy="156" r="13" fill="#e74c3c"/>
  <circle cx="84" cy="65" r="9" fill="#2563eb"/>
  <rect x="116" y="96" width="12" height="32" fill="#e74c3c"/>
  <rect x="123" y="149" width="36" height="27" fill="#2563eb"/>
  <circle cx="174" cy="51" r="18" fill="#2563eb"/>
  <rect x="112" y="120" width="32" height="16" fill="#e74c3c"/>
  <rect x="19" y="118" width="23" height="12" fill="#e74c3c"/>
  <path d="M60,134 L145,22" stroke="#e74c3c" stroke-width="2" fill="none"/>
  <rect x="18" y="34" width="35" height="17" fill="#2563eb"/>
  <rect x="67" y="67" width="19" height="34" fill="#e74c3c"/>
  <rect x="126" y="63" width="15" height="25" fill="#2563eb"/>
  <circle cx="163" cy="106" r="13" fill="#f39c12"/>
  <path d="M67,35 L96,166" stroke="#f39c12" stroke-width="2" fill="none"/>
  <circle cx="127" cy="117" r="29" fill="#f39c12"/>
  <rect x="68" y="22" width="38" height="19" fill="#e74c3c"/>
  <path d="M26,136 L61,85" stroke="#f39c12" stroke-width="2" fill="none"/>
  <rect x="98" y="70" width="16" height="33" fill="#f39c12"/>
  <path d="M43,162 L155,133" stroke="#e74c3c" stroke-width="2" fill="none"/>
</svg>