<svg xmlns="http://www.w3.org/2000/svg" viewBox="0 0 200 200">
  <circle cx="110" cy="134" r="7" fill="#e74c3c"/>
  <circle cx="37" cy="89" r="28" fill="#e74c3c"/>
  <rect x="79" y="13" width="35" height="23" fill="#e74c3c"/>
  <path d="M44,72 L140,110" stroke="#e74c3c" stroke-width="2" fill="none"/>
  <rect x="32" y="133" width="11" height="33" fill="#e74c3c"/>
  <rect x="134" y="52" width="22" height="34" fill="#c0392b"/>
  <circle cx="38" cy="62" r="18" fill="#e74c3c"/>
  <path d="M110,46 L31,64" stroke="#e74c3c" stroke-width="2" fill="none"/>
  <circle cx="111" cy="179" r="26" fill="#e74c3c"/>
  <rect x="113" y="54" width="15" height="18" fill="#e74c3c"/>
  <rect x="97" y="80" width="25" height="10" fill="#c0392b"/>
  <rect x="12" y="40" width="36" height="37" fill="#c0392b"/>
  <path d="M128,171 L140,62" stroke="#e74c3c" stroke-width="2" fill="none"/>
  <path d="M113,108 L120,118" stroke="#c0392b" stroke-width="2" fill="none"/>
  <path d="M173,79 L120,71" stroke="#e74c3c" stroke-width="2" fill="none"/>
  <rect x="21" y="33" width="36" height="12" fill="#e74c3c"/>
  <path d="M165,119 L156,179" stroke="#c0392b" stroke-width="2" fill="none"/>
  <circle cx="91" cy="171" r="28" fill="#e74c3c"/>
  <circle cx="35" cy="82" r="10" fill="#c0392b"/>
  <path d="M149,94 L161,177" stroke="#e74c3c" stroke-width="2" fill="none"/>
  <rect x="59" y="24" width="37" height="35" fill="#c0392b"/>
  <rect x="98" y="23" width="32" height="39" fill="#e74c3c"/>
  <rect x="21" y="133" width="32" height="22" fill="#c0392b"/>
  <rect x="133" y="80" width="11" height="20" fill="#e74c3c"/>
  <path d="M110,34 L83,68" stroke="#c0392b" stroke-width="2" fill="none"/>
  <path d="M53,25 L83,79" stroke="#c0392b" stroke-width="2" fill="none"/>
  <path d="M66,167 L66,102" stroke="#c0392b" stroke-width="2" fill="none"/>
  <circle cx="56" cy="103" r="30" fill="#e74c3c"/>
  <circle cx="134" cy="67" r="14" fill="#e74c3c"/>
  <path d="M52,145 L46,51" stroke="#e74c3c" stroke-width="2" fill="none"/>
</svg>