<svg xmlns="http://www.w3.org/2000/svg" viewBox="0 0 200 200">
  <circle cx="57" cy="147" r="14" fill="#2563eb"/>
  <circle cx="111" cy="39" r="19" fill="#1e40af"/>
  <path d="M72,84 L178,117" stroke="#1e40af" stroke-width="2" fill="none"/>
  <rect x="80" y="34" width="11" height="11" fill="#1e40af"/>
  <path d="M91,52 L145,32" stroke="#1e40af" stroke-width="2" fill="none"/>
  <rect x="44" y="37" width="37" height="21" fill="#1e40af"/>
  <path d="M124,136 L67,152" stroke="#2563eb" stroke-width="2" fill="none"/>
  <path d="M57,36 L105,20" stroke="#2563eb" stroke-width="2" fill="none"/>
  <path d="M69,112 L36,80" stroke="#2563eb" stroke-width="2" fill="none"/>
  <path d="M110,147 L121,119" stroke="#2563eb" stroke-width="2" fill="none"/>
  <rect x="91" y="113" width="37" height="14" fill="#1e40af"/>
  <circle cx="115" cy="54" r="7" fill="#2563eb"/>
  <path d="M131,109 L158,155" stroke="#1e40af" stroke-width="2" fill="none"/>
  <rect x="63" y="142" width="39" height="37" fill="#1e40af"/>
  <rect x="133" y="117" width="33" height="21" fill="#2563eb"/>
  <path d="M102,46 L114,64" stroke="#2563eb" stroke-width="2" fill="none"/>
  <circle cx="102" cy="70" r="26" fill="#1e40af"/>
  <circle cx="60" cy="142" r="25" fill="#1e40af"/>
  <path d="M22,110 L88,141" stroke="#2563eb" stroke-width="2" fill="none"/>
  <circle cx="87" cy="149" r="28" fill="#2563eb"/>
  <path d="M22,163 L125,75" stroke="#2563eb" stroke-width="2" fill="none"/>
  <rect x="13" y="51" width="37" height="29" fill="#1e40af"/>
  <path d="M47,39 L31,56" stroke="#1e40af" stroke-width="2" fill="none"/>
  <rect x="100" y="52" width="35" height="10" fill="#2563eb"/>
  <rect x="83" y="75" width="26" height="34" fill="#1e40af"/>
  <path d="M100,40 L26,60" stroke="#1e40af" stroke-width="2" fill="none"/>
  <circle cx="132" cy="59" r="8" fill="#1e40af"/>
  <rect x="39" y="42" width="33" height="24" fill="#1e40af"/>
  <path d="M44,20 L153,71" stroke="#2563eb" stroke-width="2" fill="none"/>
  <circle cx="76" cy="149" r="25" fill="#2563eb"/>
  <rect x="45" y="132" width="39" height="35" fill="#2563eb"/>
  <path d="M66,96 L98,148" stroke="#1e40af" stroke-width="2" fill="none"/>
  <rect x="139" y="124" width="18" height="39" fill="#2563eb"/>
  <circle cx="22" cy="171" r="30" fill="#1e40af"/>
  <path d="M153,47 L46,179" stroke="#1e40af" stroke-width="2" fill="none"/>
  <circle cx="98" cy="171" r="15" fill="#1e40af"/>
  <circle cx="84" cy="131" r="23" fill="#1e40af"/>
  <path d="M51,72 L56,94" stroke="#2563eb" stroke-width="2" fill="none"/>
  <rect x="82" y="20" width="25" height="24" fill="#1e40af"/>
  <circle cx="104" cy="24" r="27" fill="#1e40af"/>
</svg>