<svg xmlns="http://www.w3.org/2000/svg" viewBox="0 0 200 200">
  <rect x="104" y="53" width="25" height="14" fill="#2563eb"/>
  <path d="M52,28 L141,87" stroke="#2563eb" stroke-width="2" fill="none"/>
  <rect x="76" y="66" width="32" height="28" fill="#2563eb"/>
  <rect x="35" y="44" width="12" height="19" fill="#2563eb"/>
  <rect x="84" y="26" width="33" height="10" fill="#2563eb"/>
  <rect x="70" y="15" width="39" height="13" fill="#2563eb"/>
  <rect x="146" y="61" width="36" height="15" fill="#2563eb"/>
  <rect x="104" y="79" width="15" height="23" fill="#2563eb"/>
  <rect x="29" y="136" width="19" height="21" fill="#2563eb"/>
  <rect x="114" y="60" width="16" height="23" fill="#2563eb"/>
  <path d="M166,74 L51,145" stroke="#2563eb" stroke-width="2" fill="none"/>
  <circle cx="41" cy="96" r="30" fill="#2563eb"/>
  <circle cx="161" cy="122" r="26" fill="#2563eb"/>
  <circle cx="179" cy="100" r="5" fill="#2563eb"/>
  <rect x="57" y="129" width="24" height="26" fill="#2563eb"/>
  <path d="M132,75 L154,84" stroke="#2563eb" stroke-width="2" fill="none"/>
  <circle cx="122" cy="25" r="8" fill="#2563eb"/>
  <circle cx="169" cy="105" r="28" fill="#2563eb"/>
  <path d="M85,172 L133,143" stroke="#2563eb" stroke-width="2" fill="none"/>
  <rect x="11" y="22" width="18" height="28" fill="#2563eb"/>
  <rect x="104" y="96" width="24" height="21" fill="#2563eb"/>
  <rect x="11" y="60" width="26" height="38" fill="#2563eb"/>
  <rect x="100" y="79" width="18" height="12" fill="#2563eb"/>
  <circle cx="167" cy="122" r="18" fill="#2563eb"/>
  <circle cx="35" cy="111" r="24" fill="#2563eb"/>
</svg>