<svg xmlns="http://www.w3.org/2000/svg" viewBox="0 0 200 200">
  <path d="M169,174 L96,37" stroke="#2563eb" stroke-width="2" fill="none"/>
  <circle cx="42" cy="109" r="30" fill="#2563eb"/>
  <path d="M75,130 L161,75" stroke="#2563eb" stroke-width="2" fill="none"/>
  <path d="M28,120 L28,140" stroke="#2563eb" stroke-width="2" fill="none"/>
  <rect x="52" y="17" width="21" height="39" fill="#2563eb"/>
  <rect x="67" y="118" width="27" height="36" fill="#2563eb"/>
  <rect x="31" y="12" width="19" height="17" fill="#2563eb"/>
  <rect x="51" y="103" width="39" height="25" fill="#2563eb"/>
  <path d="M86,66 L114,155" stroke="#2563eb" stroke-width="2" fill="none"/>
  <path d="M39,114 L133,167" stroke="#2563eb" stroke-width="2" fill="none"/>
  <path d="M100,143 L103,48" stroke="#2563eb" stroke-width="2" fill="none"/>
  <path d="M177,124 L96,155" stroke="#2563eb" stroke-width="2" fill="none"/>
  <path d="M40,44 L110,91" stroke="#2563eb" stroke-width="2" fill="none"/>
  <circle cx="31" cy="136" r="17" fill="#2563eb"/>
  <rect x="26" y="59" width="16" height="34" fill="#2563eb"/>
  <circle cx="148" cy="42" r="13" fill="#2563eb"/>
  <circle cx="121" cy="32" r="25" fill="#2563eb"/>
  <circle cx="100" cy="55" r="21" fill="#2563eb"/>
  <circle cx="104" cy="76" r="27" fill="#2563eb"/>
  <rect x="91" y="66" width="25" height="29" fill="#2563eb"/>
</svg>