<svg xmlns="http://www.w3.org/2000/svg" viewBox="0 0 200 200">
  <rect x="12" y="83" width="40" height="17" fill="#e74c3c"/>
  <rect x="120" y="100" width="36" height="32" fill="#e74c3c"/>
  <circle cx="59" cy="150" r="8" fill="#e74c3c"/>
  <circle cx="109" cy="22" r="26" fill="#e74c3c"/>
  <path d="M28,45 L45,43" stroke="#e74c3c" stroke-width="2" fill="none"/>
  <path d="M60,130 L92,47" stroke="#e74c3c" stroke-width="2" fill="none"/>
  <path d="M136,76 L32,126" stroke="#e74c3c" stroke-width="2" fill="none"/>
  <rect x="87" y="79" width="11" height="12" fill="#e74c3c"/>
  <rect x="60" y="113" width="32" height="17" fill="#e74c3c"/>
  <circle cx="128" cy="94" r="27" fill="#e74c3c"/>
  <circle cx="90" cy="124" r="25" fill="#e74c3c"/>
  <path d="M106,41 L33,96" stroke="#e74c3c" stroke-width="2" fill="none"/>
  <rect x="106" y="15" width="33" height="36" fill="#e74c3c"/>
  <path d="M130,32 L159,169" stroke="#e74c3c" stroke-width="2" fill="none"/>
  <path d="M122,173 L31,137" stroke="#e74c3c" stroke-width="2" fill="none"/>
  <path d="M57,81 L41,147" stroke="#e74c3c" stroke-width="2" fill="none"/>
  <path d="M171,67 L175,32" stroke="#e74c3c" stroke-width="2" fill="none"/>
  <circle cx="33" cy="65" r="15" fill="#e74c3c"/>
  <rect x="83" y="69" width="25" height="36" fill="#e74c3c"/>
  <circle cx="53" cy="42" r="24" fill="#e74c3c"/>
  <path d="M23,156 L105,36" stroke="#e74c3c" stroke-width="2" fill="none"/>
  <path d="M111,69 L77,125" stroke="#e74c3c" stroke-width="2" fill="none"/>
  <path d="M141,23 L61,128" stroke="#e74c3c" stroke-width="2" fill="none"/>
  <path d="M122,72 L53,42" stroke="#e74c3c" stroke-width="2" fill="none"/>
  <path d="M164,174 L50,64" stroke="#e74c3c" stroke-width="2" fill="none"/>
</svg>