<svg xmlns="http://www.w3.org/2000/svg" viewBox="0 0 200 200">
  <path d="M50,94 L20,100" stroke="#2563eb" stroke-width="2" fill="none"/>
  <path d="M22,178 L136,164" stroke="#2563eb" stroke-width="2" fill="none"/>
  <rect x="42" y="104" width="16" height="16" fill="#2563eb"/>
  <rect x="86" y="112" width="30" height="20" fill="#2563eb"/>
  <path d="M86,28 L164,74" stroke="#2563eb" stroke-width="2" fill="none"/>
  <rect x="25" y="28" width="16" height="13" fill="#2563eb"/>
  <path d="M164,128 L122,162" stroke="#2563eb" stroke-width="2" fill="none"/>
  <circle cx="158" cy="114" r="28" fill="#2563eb"/>
  <path d="M135,97 L105,93" stroke="#2563eb" stroke-width="2" fill="none"/>
  <circle cx="30" cy="123" r="26" fill="#2563eb"/>
  <rect x="12" y="128" width="13" height="18" fill="#2563eb"/>
  <rect x="32" y="40" width="26" height="35" fill="#2563eb"/>
  <circle cx="180" cy="135" r="24" fill="#2563eb"/>
  <path d="M52,85 L70,148" stroke="#2563eb" stroke-width="2" fill="none"/>
  <rect x="51" y="96" width="10" height="39" fill="#2563eb"/>
  <path d="M178,139 L92,164" stroke="#2563eb" stroke-width="2" fill="none"/>
  <rect x="78" y="87" width="34" height="39" fill="#2563eb"/>
  <circle cx="87" cy="116" r="14" fill="#2563eb"/>
  <circle cx="123" cy="167" r="7" fill="#2563eb"/>
  <circle cx="153" cy="116" r="9" fill="#2563eb"/>
  <circle cx="78" cy="81" r="15" fill="#2563eb"/>
  <circle cx="130" cy="44" r="20" fill="#2563eb"/>
  <rect x="95" y="20" width="39" height="25" fill="#2563eb"/>
  <path d="M66,90 L91,168" stroke="#2563eb" stroke-width="2" fill="none"/>
  <rect x="91" y="71" width="30" height="14" fill="#2563eb"/>
  <path d="M176,23 L85,88" stroke="#2563eb" stroke-width="2" fill="none"/>
  <rect x="94" y="63" width="30" height="32" fill="#2563eb"/>
  <rect x="113" y="38" width="12" height="38" fill="#2563eb"/>
  <path d="M26,48 L36,84" stroke="#2563eb" stroke-width="2" fill="none"/>
  <path d="M88,145 L135,140" stroke="#2563eb" stroke-width="2" fill="none"/>
  <circle cx="93" cy="81" r="5" fill="#e74c3c"/>
</svg>