<svg xmlns="http://www.w3.org/2000/svg" viewBox="0 0 200 200">
  <path d="M114,108 L54,121" stroke="#2563eb" stroke-width="2" fill="none"/>
  <path d="M50,32 L41,150" stroke="#2563eb" stroke-width="2" fill="none"/>
  <circle cx="178" cy="87" r="30" fill="#2563eb"/>
  <rect x="150" y="140" width="27" height="34" fill="#2563eb"/>
  <rect x="136" y="17" width="33" height="12" fill="#2563eb"/>
  <path d="M73,140 L63,49" stroke="#2563eb" stroke-width="2" fill="none"/>
  <rect x="65" y="66" width="12" height="25" fill="#2563eb"/>
  <circle cx="134" cy="62" r="25" fill="#2563eb"/>
  <rect x="114" y="119" width="38" height="40" fill="#2563eb"/>
  <path d="M100,79 L42,146" stroke="#2563eb" stroke-width="2" fill="none"/>
  <rect x="120" y="125" width="14" height="34" fill="#2563eb"/>
  <rect x="12" y="17" width="19" height="22" fill="#2563eb"/>
  <rect x="11" y="40" width="12" height="35" fill="#2563eb"/>
  <path d="M25,40 L118,102" stroke="#2563eb" stroke-width="2" fill="none"/>
  <path d="M67,26 L21,154" stroke="#2563eb" stroke-width="2" fill="none"/>
  <rect x="133" y="88" width="34" height="12" fill="#2563eb"/>
  <circle cx="132" cy="60" r="24" fill="#2563eb"/>
  <path d="M96,64 L169,27" stroke="#2563eb" stroke-width="2" fill="none"/>
  <rect x="107" y="98" width="34" height="37" fill="#2563eb"/>
  <path d="M142,170 L82,123" stroke="#2563eb" stroke-width="2" fill="none"/>
</svg>