<svg xmlns="http://www.w3.org/2000/svg" viewBox="0 0 200 200">
  <rect x="123" y="133" width="27" height="21" fill="#e74c3c"/>
  <path d="M158,82 L22,89" stroke="#e74c3c" stroke-width="2" fill="none"/>
  <rect x="59" y="19" width="20" height="40" fill="#c0392b"/>
  <path d="M48,71 L64,117" stroke="#e74c3c" stroke-width="2" fill="none"/>
  <rect x="120" y="21" width="23" height="11" fill="#e74c3c"/>
  <rect x="61" y="36" width="31" height="37" fill="#e74c3c"/>
  <path d="M108,173 L103,113" stroke="#c0392b" stroke-width="2" fill="none"/>
  <rect x="71" y="69" width="12" height="25" fill="#e74c3c"/>
  <rect x="128" y="130" width="35" height="29" fill="#e74c3c"/>
  <circle cx="80" cy="80" r="14" fill="#c0392b"/>
  <path d="M45,156 L55,77" stroke="#e74c3c" stroke-width="2" fill="none"/>
  <path d="M81,50 L61,32" stroke="#c0392b" stroke-width="2" fill="none"/>
  <circle cx="82" cy="158" r="7" fill="#e74c3c"/>
  <rect x="79" y="144" width="32" height="39" fill="#c0392b"/>
  <circle cx="114" cy="41" r="28" fill="#e74c3c"/>
  <circle cx="29" cy="130" r="25" fill="#c0392b"/>
  <path d="M124,108 L102,84" stroke="#c0392b" stroke-width="2" fill="none"/>
  <rect x="109" y="67" width="35" height="25" fill="#c0392b"/>
  <circle cx="153" cy="127" r="11" fill="#e74c3c"/>
  <path d="M126,176 L95,32" stroke="#e74c3c" stroke-width="2" fill="none"/>
  <circle cx="104" cy="157" r="27" fill="#e74c3c"/>
  <circle cx="43" cy="100" r="8" fill="#c0392b"/>
  <circle cx="101" cy="151" r="9" fill="#c0392b"/>
  <rect x="18" y="110" width="27" height="15" fill="#e74c3c"/>
  <path d="M102,38 L158,178" stroke="#e74c3c" stroke-width="2" fill="none"/>
  <circle cx="108" cy="66" r="8" fill="#c0392b"/>
  <path d="M138,25 L177,64" stroke="#c0392b" stroke-width="2" fill="none"/>
  <rect x="37" y="32" width="24" height="36" fill="#e74c3c"/>
  <circle cx="40" cy="77" r="29" fill="#e74c3c"/>
  <path d="M171,172 L170,23" stroke="#c0392b" stroke-width="2" fill="none"/>
</svg>