<svg xmlns="http://www.w3.org/2000/svg" viewBox="0 0 200 200">
  <path d="M172,59 L121,76" stroke="#f39c12" stroke-width="2" fill="none"/>
  <path d="M133,142 L159,117" stroke="#e74c3c" stroke-width="2" fill="none"/>
  <rect x="143" y="104" width="23" height="40" fill="#e74c3c"/>
  <rect x="61" y="23" width="26" height="32" fill="#f39c12"/>
  <path d="M138,88 L175,134" stroke="#e74c3c" stroke-width="2" fill="none"/>
  <rect x="67" y="60" width="32" height="32" fill="#2563eb"/>
  <circle cx="64" cy="89" r="22" fill="#2563eb"/>
  <path d="M69,106 L132,159" stroke="#e74c3c" stroke-width="2" fill="none"/>
  <circle cx="166" cy="171" r="18" fill="#2563eb"/>
  <rect x="135" y="129" width="28" height="38" fill="#f39c12"/>
  <circle cx="62" cy="114" r="17" fill="#e74c3c"/>
  <path d="M169,160 L48,50" stroke="#e74c3c" stroke-width="2" fill="none"/>
  <path d="M64,177 L115,36" stroke="#2563eb" stroke-width="2" fill="none"/>
  <path d="M99,104 L132,38" stroke="#e74c3c" stroke-width="2" fill="none"/>
  <circle cx="25" cy="80" r="15" fill="#e74c3c"/>
  <circle cx="155" cy="77" r="10" fill="#f39c12"/>
  <path d="M144,90 L150,127" stroke="#f39c12" stroke-width="2" fill="none"/>
  <path d="M37,124 L93,127" stroke="#e74c3c" stroke-width="2" fill="none"/>
  <circle cx="164" cy="132" r="15" fill="#2563eb"/>
  <path d="M90,116 L139,131" stroke="#2563eb" stroke-width="2" fill="none"/>
  <rect x="80" y="36" width="18" height="33" fill="#e74c3c"/>
  <path d="M103,88 L129,153" stroke="#e74c3c" stroke-width="2" fill="none"/>
  <path d="M86,152 L121,27" stroke="#e74c3c" stroke-width="2" fill="none"/>
  <path d="M135,40 L122,54" stroke="#e74c3c" stroke-width="2" fill="none"/>
  <circle cx="122" cy="134" r="27" fill="#2563eb"/>
  <path d="M21,135 L43,120" stroke="#2563eb" stroke-width="2" fill="none"/>
  <circle cx="44" cy="106" r="10" fill="#f39c12"/>
  <path d="M20,63 L134,133" stroke="#f39c12" stroke-width="2" fill="none"/>
  <rect x="25" y="91" width="13" height="38" fill="#e74c3c"/>
  <rect x="60" y="109" width="32" height="14" fill="#2563eb"/>
</svg>