<svg xmlns="http://www.w3.org/2000/svg" viewBox="0 0 200 200">
  <rect x="78" y="113" width="31" height="17" fill="#2563eb"/>
  <circle cx="59" cy="66" r="28" fill="#f39c12"/>
  <circle cx="46" cy="129" r="26" fill="#f39c12"/>
  <path d="M109,82 L127,125" stroke="#f39c12" stroke-width="2" fill="none"/>
  <circle cx="120" cy="103" r="22" fill="#f39c12"/>
  <circle cx="77" cy="87" r="14" fill="#e74c3c"/>
  <rect x="20" y="132" width="20" height="12" fill="#2563eb"/>
  <rect x="20" y="59" width="28" height="12" fill="#e74c3c"/>
  <circle cx="140" cy="179" r="29" fill="#e74c3c"/>
  <path d="M133,161 L131,90" stroke="#e74c3c" stroke-width="2" fill="none"/>
  <circle cx="116" cy="139" r="11" fill="#e74c3c"/>
  <circle cx="77" cy="59" r="23" fill="#2563eb"/>
  <rect x="29" y="69" width="25" height="26" fill="#e74c3c"/>
  <circle cx="45" cy="153" r="6" fill="#2563eb"/>
  <circle cx="22" cy="147" r="9" fill="#e74c3c"/>
  <rect x="84" y="112" width="20" height="18" fill="#e74c3c"/>
  <rect x="133" y="124" width="32" height="40" fill="#e74c3c"/>
  <circle cx="104" cy="59" r="9" fill="#e74c3c"/>
  <rect x="137" y="58" width="40" height="33" fill="#2563eb"/>
  <path d="M53,99 L178,85" stroke="#2563eb" stroke-width="2" fill="none"/>
</svg>