<svg viewBox="0 0 100 100" xmlns="http://www.w3.org/2000/svg">
  <defs>
    <style>
      /* Main color palette */
      .core-dark { fill: #10b981; } /* Darker green for main structure */
      .flow-light { stroke: #6ee7b7; fill: none; stroke-linecap: round; stroke-linejoin: round; } /* Lighter green for flow lines */
      .node-light { fill: #6ee7b7; } /* Lighter green for nodes */
    </style>
  </defs>

  <!-- Central Implied Core - Forms a neural nucleus through Gestalt closure (2 elements) -->
  <!-- Left/Top organic shape, creating a void with the opposing element -->
  <path d="M38 15 C10 30, 10 70, 38 85 C48 80, 43 50, 38 15 Z" class="core-dark"/>
  <!-- Right/Bottom organic shape, completing the central void -->
  <path d="M62 85 C90 70, 90 30, 62 15 C52 20, 57 50, 62 85 Z" class="core-dark"/>

  <!-- Main Flow Pathways - Representing primary data channels (4 elements) -->
  <path d="M25 45 C15 35, 30 20, 50 25" class="flow-light" stroke-width="2.5"/>
  <path d="M75 55 C85 65, 70 80, 50 75" class="flow-light" stroke-width="2.5"/>
  <path d="M50 10 C60 0, 70 30, 55 50" class="flow-light" stroke-width="2.5"/>
  <path d="M50 90 C40 100, 30 70, 45 50" class="flow-light" stroke-width="2.5"/>

  <!-- Smaller Flow Details / Interconnections - Adding complexity and organic feel (12 elements) -->
  <path d="M40 30 Q50 20 60 30" class="flow-light" stroke-width="1.5"/>
  <path d="M60 70 Q50 80 40 70" class="flow-light" stroke-width="1.5"/>
  <path d="M30 60 Q20 50 30 40" class="flow-light" stroke-width="1.5"/>
  <path d="M70 40 Q80 50 70 60" class="flow-light" stroke-width="1.5"/>
  <path d="M45 40 Q55 35 65 40" class="flow-light" stroke-width="1.5"/>
  <path d="M35 60 Q45 65 55 60" class="flow-light" stroke-width="1.5"/>
  <path d="M40 50 Q35 55 40 60" class="flow-light" stroke-width="1.5"/>
  <path d="M60 50 Q65 45 60 40" class="flow-light" stroke-width="1.5"/>
  <path d="M48 45 Q52 40 55 45" class="flow-light" stroke-width="1"/>
  <path d="M45 52 Q40 55 45 58" class="flow-light" stroke-width="1"/>
  <path d="M52 55 Q58 50 52 45" class="flow-light" stroke-width="1"/>
  <path d="M55 48 Q60 52 55 55" class="flow-light" stroke-width="1"/>

  <!-- Nodes / Synapses - Representing connection points in the neural network (7 elements) -->
  <circle cx="50" cy="50" r="3" class="node-light"/> <!-- Central implied node -->
  <circle cx="20" cy="40" r="2" class="node-light"/>
  <circle cx="80" cy="60" r="2" class="node-light"/>
  <circle cx="50" cy="15" r="2" class="node-light"/>
  <circle cx="50" cy="85" r="2" class="node-light"/>
  <circle cx="70" cy="30" r="2" class="node-light"/>
  <circle cx="30" cy="70" r="2" class="node-light"/>
</svg>